<svg width="165" height="32" viewBox="0 0 165 32" fill="none" xmlns="http://www.w3.org/2000/svg">
<rect x="108" y="12" width="1" height="16" fill="#003A8C"/>
<path d="M46.8752 20C46.8752 20.2984 46.9937 20.5845 47.2047 20.7955C47.4157 21.0065 47.7018 21.125 48.0002 21.125C48.2986 21.125 48.5847 21.0065 48.7957 20.7955C49.0067 20.5845 49.1252 20.2984 49.1252 20C49.1252 19.7016 49.0067 19.4155 48.7957 19.2045C48.5847 18.9935 48.2986 18.875 48.0002 18.875C47.7018 18.875 47.4157 18.9935 47.2047 19.2045C46.9937 19.4155 46.8752 19.7016 46.8752 20ZM51.5627 20C51.5627 20.2984 51.6812 20.5845 51.8922 20.7955C52.1032 21.0065 52.3893 21.125 52.6877 21.125C52.9861 21.125 53.2722 21.0065 53.4832 20.7955C53.6942 20.5845 53.8127 20.2984 53.8127 20C53.8127 19.7016 53.6942 19.4155 53.4832 19.2045C53.2722 18.9935 52.9861 18.875 52.6877 18.875C52.3893 18.875 52.1032 18.9935 51.8922 19.2045C51.6812 19.4155 51.5627 19.7016 51.5627 20ZM42.1877 20C42.1877 20.2984 42.3062 20.5845 42.5172 20.7955C42.7282 21.0065 43.0143 21.125 43.3127 21.125C43.6111 21.125 43.8972 21.0065 44.1082 20.7955C44.3192 20.5845 44.4377 20.2984 44.4377 20C44.4377 19.7016 44.3192 19.4155 44.1082 19.2045C43.8972 18.9935 43.6111 18.875 43.3127 18.875C43.0143 18.875 42.7282 18.9935 42.5172 19.2045C42.3062 19.4155 42.1877 19.7016 42.1877 20ZM57.6846 15.9312C57.1549 14.6727 56.3955 13.543 55.4275 12.5727C54.4663 11.608 53.3253 10.8411 52.0689 10.3156C50.7799 9.77422 49.4111 9.5 48.0002 9.5H47.9533C46.533 9.50703 45.1572 9.78828 43.8635 10.3414C42.6179 10.8723 41.4875 11.6405 40.5354 12.6031C39.5768 13.5711 38.8244 14.6961 38.3041 15.95C37.765 17.2484 37.4932 18.6289 37.5002 20.0492C37.5081 21.6769 37.8932 23.2806 38.6252 24.7344V28.2969C38.6252 28.5828 38.7388 28.857 38.941 29.0592C39.1432 29.2614 39.4174 29.375 39.7033 29.375H43.2682C44.722 30.107 46.3257 30.492 47.9533 30.5H48.0025C49.4064 30.5 50.7682 30.2281 52.0502 29.6961C53.3002 29.1768 54.437 28.419 55.3971 27.4648C56.365 26.5063 57.1268 25.3859 57.6588 24.1367C58.2119 22.843 58.4932 21.4672 58.5002 20.0469C58.5072 18.6195 58.2307 17.2344 57.6846 15.9312ZM54.1432 26.1969C52.5002 27.8234 50.3205 28.7188 48.0002 28.7188H47.9604C46.5471 28.7117 45.1432 28.3602 43.9033 27.6992L43.7064 27.5938H40.4064V24.2938L40.301 24.0969C39.64 22.857 39.2885 21.4531 39.2814 20.0398C39.2721 17.7031 40.165 15.5094 41.8033 13.857C43.4393 12.2047 45.626 11.2906 47.9627 11.2812H48.0025C49.1744 11.2812 50.3111 11.5086 51.3822 11.9586C52.4275 12.3969 53.365 13.0273 54.1713 13.8336C54.9752 14.6375 55.608 15.5773 56.0463 16.6227C56.501 17.7055 56.7283 18.8539 56.7236 20.0398C56.7096 22.3742 55.7932 24.5609 54.1432 26.1969Z" fill="#002766"/>
<path d="M20.9061 26.0937H19.0311V24.2187C19.0311 24.1156 18.9467 24.0312 18.8436 24.0312H17.7186C17.6155 24.0312 17.5311 24.1156 17.5311 24.2187V26.0937H15.6561C15.553 26.0937 15.4686 26.1781 15.4686 26.2812V27.4062C15.4686 27.5093 15.553 27.5937 15.6561 27.5937H17.5311V29.4687C17.5311 29.5718 17.6155 29.6562 17.7186 29.6562H18.8436C18.9467 29.6562 19.0311 29.5718 19.0311 29.4687V27.5937H20.9061C21.0092 27.5937 21.0936 27.5093 21.0936 27.4062V26.2812C21.0936 26.1781 21.0092 26.0937 20.9061 26.0937ZM8.75376 19.6812C8.73266 19.4773 8.72094 19.2711 8.72094 19.0625C8.72094 18.6898 8.7561 18.3265 8.82173 17.9726C8.83813 17.8883 8.7936 17.8015 8.71626 17.7664C8.39751 17.6234 8.10454 17.4265 7.85141 17.1781C7.55315 16.8889 7.31844 16.5407 7.16227 16.1557C7.0061 15.7707 6.93189 15.3574 6.94438 14.9422C6.96548 14.1898 7.26782 13.475 7.79516 12.9359C8.37407 12.3429 9.15219 12.0195 9.97954 12.0289C10.7272 12.0359 11.4491 12.3242 11.9952 12.8351C12.1803 13.0086 12.3397 13.2008 12.4733 13.407C12.5202 13.4797 12.6116 13.5101 12.6913 13.482C13.1038 13.339 13.5397 13.2383 13.9874 13.1914C14.1186 13.1773 14.1936 13.0367 14.135 12.9195C13.3733 11.4125 11.817 10.3718 10.017 10.3437C7.42016 10.3039 5.25454 12.4343 5.25454 15.0312C5.25454 16.5031 5.93188 17.8156 6.9936 18.6758C6.24829 19.0203 5.56157 19.4961 4.96626 20.0914C3.68188 21.3734 2.95532 23.0656 2.90844 24.8726C2.90782 24.8976 2.91221 24.9225 2.92135 24.9458C2.93049 24.9691 2.9442 24.9903 2.96168 25.0082C2.97915 25.0262 3.00003 25.0404 3.02309 25.0501C3.04615 25.0598 3.07092 25.0648 3.09595 25.0648H4.41079C4.51157 25.0648 4.59594 24.9851 4.59829 24.8843C4.64282 23.525 5.1936 22.2523 6.16157 21.2867C6.85063 20.5976 7.69438 20.1195 8.61548 19.8875C8.70454 19.8617 8.76548 19.775 8.75376 19.6812ZM19.3124 19.0625C19.3124 16.4984 17.2522 14.4148 14.6975 14.375C12.1006 14.3351 9.93735 16.4656 9.93735 19.0625C9.93735 20.5343 10.617 21.8468 11.6764 22.707C10.9234 23.0561 10.2379 23.5353 9.65141 24.1226C8.36704 25.4047 7.64048 27.0968 7.5936 28.9015C7.59298 28.9265 7.59736 28.9514 7.60651 28.9747C7.61565 28.998 7.62936 29.0192 7.64683 29.0372C7.66431 29.0551 7.68519 29.0693 7.70825 29.079C7.73131 29.0887 7.75608 29.0937 7.7811 29.0937H9.0936C9.19438 29.0937 9.27876 29.014 9.2811 28.9132C9.32563 27.5539 9.87641 26.2812 10.8444 25.3156C11.8545 24.3054 13.1952 23.75 14.6249 23.75C17.2124 23.75 19.3124 21.6523 19.3124 19.0625ZM16.7459 21.1836C16.1788 21.7508 15.4264 22.0625 14.6249 22.0625C13.8233 22.0625 13.0709 21.7508 12.5038 21.1836C12.2207 20.902 11.9971 20.5665 11.8461 20.1969C11.6951 19.8273 11.6199 19.4312 11.6249 19.032C11.6319 18.2633 11.9389 17.5203 12.4756 16.9695C13.0381 16.3929 13.7905 16.0718 14.5944 16.0625C15.3889 16.0554 16.16 16.3648 16.7272 16.9203C17.3084 17.4898 17.6272 18.2515 17.6272 19.0625C17.6249 19.864 17.3131 20.6164 16.7459 21.1836Z" fill="#002766"/>
<path d="M91.125 26H90.5625V18.0312C90.5625 14.7242 88.118 11.9914 84.9375 11.5367V10.625C84.9375 10.107 84.518 9.6875 84 9.6875C83.482 9.6875 83.0625 10.107 83.0625 10.625V11.5367C79.882 11.9914 77.4375 14.7242 77.4375 18.0312V26H76.875C76.4602 26 76.125 26.3352 76.125 26.75V27.5C76.125 27.6031 76.2094 27.6875 76.3125 27.6875H81.375C81.375 29.1359 82.5516 30.3125 84 30.3125C85.4484 30.3125 86.625 29.1359 86.625 27.6875H91.6875C91.7906 27.6875 91.875 27.6031 91.875 27.5V26.75C91.875 26.3352 91.5398 26 91.125 26ZM84 28.8125C83.3789 28.8125 82.875 28.3086 82.875 27.6875H85.125C85.125 28.3086 84.6211 28.8125 84 28.8125ZM79.125 26V18.0312C79.125 16.7281 79.6312 15.5047 80.5523 14.5836C81.4734 13.6625 82.6969 13.1562 84 13.1562C85.3031 13.1562 86.5266 13.6625 87.4477 14.5836C88.3687 15.5047 88.875 16.7281 88.875 18.0312V26H79.125Z" fill="white"/>
<path d="M133 9.5C127.202 9.5 122.5 14.2016 122.5 20C122.5 25.7984 127.202 30.5 133 30.5C138.798 30.5 143.5 25.7984 143.5 20C143.5 14.2016 138.798 9.5 133 9.5ZM133 28.7188C128.186 28.7188 124.281 24.8141 124.281 20C124.281 15.1859 128.186 11.2812 133 11.2812C137.814 11.2812 141.719 15.1859 141.719 20C141.719 24.8141 137.814 28.7188 133 28.7188Z" fill="#002766"/>
<path d="M131.875 15.875C131.875 16.1734 131.994 16.4595 132.205 16.6705C132.415 16.8815 132.702 17 133 17C133.298 17 133.585 16.8815 133.795 16.6705C134.006 16.4595 134.125 16.1734 134.125 15.875C134.125 15.5766 134.006 15.2905 133.795 15.0795C133.585 14.8685 133.298 14.75 133 14.75C132.702 14.75 132.415 14.8685 132.205 15.0795C131.994 15.2905 131.875 15.5766 131.875 15.875ZM133.562 18.5H132.438C132.334 18.5 132.25 18.5844 132.25 18.6875V25.0625C132.25 25.1656 132.334 25.25 132.438 25.25H133.562C133.666 25.25 133.75 25.1656 133.75 25.0625V18.6875C133.75 18.5844 133.666 18.5 133.562 18.5Z" fill="#002766"/>
<path d="M162.131 16.6875H151.868C151.56 16.6875 151.389 17.0125 151.579 17.2344L156.71 23.1844C156.857 23.3547 157.14 23.3547 157.289 23.1844L162.42 17.2344C162.61 17.0125 162.439 16.6875 162.131 16.6875Z" fill="#002766"/>
<rect x="84.5" y="0.5" width="19" height="19" rx="9.5" fill="#F5222D" stroke="white"/>
<path d="M93.9932 15.1641C96.085 15.1641 97.5752 13.9883 97.5752 12.334C97.5752 11.1104 96.7275 10.0986 95.4492 9.79785V9.77051C96.5225 9.42871 97.1719 8.59473 97.1719 7.56934C97.1719 6.06543 95.8389 4.97168 93.9932 4.97168C92.1611 4.97168 90.8076 6.07227 90.8076 7.5625C90.8076 8.60156 91.4707 9.44238 92.5371 9.77051V9.79785C91.2656 10.0918 90.418 11.1035 90.418 12.334C90.418 13.9814 91.9082 15.1641 93.9932 15.1641ZM93.9932 14.0908C92.6396 14.0908 91.6689 13.3184 91.6689 12.2451C91.6689 11.165 92.6396 10.3926 93.9932 10.3926C95.3535 10.3926 96.3174 11.1582 96.3174 12.2451C96.3174 13.3184 95.3535 14.0908 93.9932 14.0908ZM93.9932 9.3125C92.8379 9.3125 92.0312 8.63574 92.0312 7.67871C92.0312 6.71484 92.8379 6.03125 93.9932 6.03125C95.1484 6.03125 95.9551 6.70801 95.9551 7.67871C95.9551 8.63574 95.1416 9.3125 93.9932 9.3125Z" fill="white"/>
</svg>
