<svg width="220" height="230" viewBox="0 0 220 230" fill="none" xmlns="http://www.w3.org/2000/svg">
<g filter="url(#filter0_d_1_257)">
<rect x="12" y="8" width="196" height="200" rx="4" fill="white"/>
<g clip-path="url(#clip0_1_257)">
<path d="M12 12H208V44H12V12Z" fill="white"/>
<path d="M24.4854 30.2861C24.6016 32.0293 26.0508 33.1641 28.1426 33.1641C30.4121 33.1641 31.834 32.0361 31.834 30.2314C31.834 28.8164 31.0068 28.0303 28.9629 27.5176L27.9307 27.2441C26.5908 26.8955 26.0439 26.4512 26.0439 25.7061C26.0439 24.7422 26.9326 24.0791 28.2109 24.0791C29.4961 24.0791 30.3506 24.7285 30.46 25.7881H31.6904C31.6357 24.1338 30.2139 22.9717 28.252 22.9717C26.2012 22.9717 24.7656 24.1201 24.7656 25.7607C24.7656 27.1006 25.5723 27.9004 27.3906 28.3652L28.6553 28.6934C29.9814 29.0352 30.5625 29.5479 30.5625 30.3818C30.5625 31.3525 29.5918 32.0566 28.2588 32.0566C26.8506 32.0566 25.8389 31.3525 25.7227 30.2861H24.4854ZM33.1465 33H34.3359V28.8574C34.3359 27.627 35.0674 26.8203 36.25 26.8203C37.3643 26.8203 37.9316 27.4971 37.9316 28.625V33H39.1211V28.4062C39.1211 26.8203 38.1777 25.7676 36.6191 25.7676C35.5391 25.7676 34.7598 26.2324 34.3633 27.0254H34.3359V23.1357H33.1465V33ZM42.9766 32.1113C42.1221 32.1113 41.5547 31.667 41.5547 30.9902C41.5547 30.3203 42.1016 29.8965 43.0586 29.835L44.959 29.7188V30.2998C44.959 31.3252 44.0977 32.1113 42.9766 32.1113ZM42.71 33.123C43.667 33.123 44.5693 32.5898 44.9932 31.7764H45.0205V33H46.1484V28.085C46.1484 26.6699 45.0957 25.7676 43.4277 25.7676C41.7461 25.7676 40.6934 26.7109 40.6113 27.9414H41.7598C41.9102 27.2441 42.4844 26.8135 43.4004 26.8135C44.3848 26.8135 44.959 27.333 44.959 28.2012V28.7959L42.9219 28.9121C41.2812 29.0078 40.3447 29.7734 40.3447 30.9902C40.3447 32.2686 41.2949 33.123 42.71 33.123ZM47.6592 33H48.8486V28.5703C48.8486 27.5654 49.4502 26.9023 50.373 26.9023C50.6602 26.9023 50.9131 26.9365 51.0088 26.9707V25.8154C50.9131 25.8018 50.7354 25.7676 50.5303 25.7676C49.6963 25.7676 49.04 26.2666 48.8076 27.0527H48.7803V25.8906H47.6592V33ZM54.4883 26.7998C55.6094 26.7998 56.3545 27.6475 56.3818 28.8369H52.5195C52.5947 27.6543 53.374 26.7998 54.4883 26.7998ZM56.3545 30.9629C56.1562 31.6328 55.4932 32.0908 54.5908 32.0908C53.3125 32.0908 52.5127 31.1953 52.5127 29.835V29.7666H57.6123V29.3154C57.6123 27.1621 56.4297 25.7676 54.5088 25.7676C52.5469 25.7676 51.2891 27.2646 51.2891 29.4727C51.2891 31.708 52.5264 33.123 54.5635 33.123C56.1152 33.123 57.3184 32.207 57.5234 30.9629H56.3545ZM63.0879 33V25.2822H63.1494L68.5498 33H69.7461V23.1357H68.5293V30.8809H68.4678L63.0674 23.1357H61.8711V33H63.0879ZM74.4219 33.123C76.3838 33.123 77.71 31.708 77.71 29.4453C77.71 27.1758 76.3838 25.7676 74.4219 25.7676C72.4531 25.7676 71.127 27.1758 71.127 29.4453C71.127 31.708 72.4531 33.123 74.4219 33.123ZM74.4219 32.0771C73.1641 32.0771 72.3369 31.1201 72.3369 29.4453C72.3369 27.7705 73.1641 26.8135 74.4219 26.8135C75.6797 26.8135 76.5 27.7705 76.5 29.4453C76.5 31.1201 75.6797 32.0771 74.4219 32.0771ZM87.957 25.8906H86.7812L85.3594 31.6738H85.332L83.7188 25.8906H82.5703L80.9639 31.6738H80.9365L79.5146 25.8906H78.332L80.3213 33H81.5312L83.1309 27.4971H83.1582L84.7646 33H85.9746L87.957 25.8906ZM92.332 29.1172C92.332 31.4961 92.9609 33.4307 94.2734 35.0986H95.2715C94.3008 33.9707 93.542 31.3525 93.542 29.1172C93.542 26.8818 94.3008 24.2637 95.2715 23.1357H94.2734C92.9609 24.8037 92.332 26.7383 92.332 29.1172ZM100.665 22.9717C97.8691 22.9717 96.1191 24.9404 96.1191 28.0713C96.1191 31.2021 97.8691 33.1641 100.665 33.1641C103.461 33.1641 105.211 31.2021 105.211 28.0713C105.211 24.9404 103.461 22.9717 100.665 22.9717ZM100.665 24.1064C102.682 24.1064 103.946 25.6377 103.946 28.0713C103.946 30.498 102.682 32.0293 100.665 32.0293C98.6484 32.0293 97.3838 30.498 97.3838 28.0713C97.3838 25.6377 98.6484 24.1064 100.665 24.1064ZM106.558 33H107.747V28.8164C107.747 27.6133 108.479 26.8203 109.6 26.8203C110.693 26.8203 111.233 27.4492 111.233 28.5977V33H112.423V28.3857C112.423 26.7725 111.521 25.7676 109.962 25.7676C108.861 25.7676 108.103 26.2598 107.706 27.0254H107.679V25.8906H106.558V33ZM114.002 33H115.191V23.1357H114.002V33ZM117.386 35.6592C118.671 35.6592 119.259 35.1602 119.867 33.499L122.663 25.8906H121.412L119.443 31.8105H119.423L117.454 25.8906H116.183L118.808 33.0068L118.644 33.5059C118.37 34.333 118.001 34.6543 117.338 34.6543C117.188 34.6543 117.003 34.6475 116.873 34.6201V35.6182C117.003 35.6455 117.242 35.6592 117.386 35.6592ZM126.478 33H127.667V28.543C127.667 27.5586 128.351 26.8203 129.294 26.8203C130.176 26.8203 130.75 27.3809 130.75 28.2354V33H131.939V28.4814C131.939 27.5176 132.603 26.8203 133.546 26.8203C134.482 26.8203 135.022 27.3945 135.022 28.3652V33H136.212V28.0918C136.212 26.6836 135.303 25.7676 133.895 25.7676C132.896 25.7676 132.062 26.2734 131.666 27.1211H131.639C131.331 26.2598 130.613 25.7676 129.643 25.7676C128.686 25.7676 127.961 26.2734 127.626 27.0254H127.599V25.8906H126.478V33ZM140.58 26.7998C141.701 26.7998 142.446 27.6475 142.474 28.8369H138.611C138.687 27.6543 139.466 26.7998 140.58 26.7998ZM142.446 30.9629C142.248 31.6328 141.585 32.0908 140.683 32.0908C139.404 32.0908 138.604 31.1953 138.604 29.835V29.7666H143.704V29.3154C143.704 27.1621 142.521 25.7676 140.601 25.7676C138.639 25.7676 137.381 27.2646 137.381 29.4727C137.381 31.708 138.618 33.123 140.655 33.123C142.207 33.123 143.41 32.207 143.615 30.9629H142.446ZM147.348 29.1172C147.348 25.9932 146.309 24.2842 145.406 23.1357H144.408C145.003 23.8262 146.138 26.0205 146.138 29.1172C146.138 32.2139 145.01 34.4014 144.408 35.0986H145.406C146.309 33.9502 147.348 32.2412 147.348 29.1172Z" fill="#595959"/>
<path d="M12 44H208V76H12V44Z" fill="white"/>
<path d="M24.4854 62.2861C24.6016 64.0293 26.0508 65.1641 28.1426 65.1641C30.4121 65.1641 31.834 64.0361 31.834 62.2314C31.834 60.8164 31.0068 60.0303 28.9629 59.5176L27.9307 59.2441C26.5908 58.8955 26.0439 58.4512 26.0439 57.7061C26.0439 56.7422 26.9326 56.0791 28.2109 56.0791C29.4961 56.0791 30.3506 56.7285 30.46 57.7881H31.6904C31.6357 56.1338 30.2139 54.9717 28.252 54.9717C26.2012 54.9717 24.7656 56.1201 24.7656 57.7607C24.7656 59.1006 25.5723 59.9004 27.3906 60.3652L28.6553 60.6934C29.9814 61.0352 30.5625 61.5479 30.5625 62.3818C30.5625 63.3525 29.5918 64.0566 28.2588 64.0566C26.8506 64.0566 25.8389 63.3525 25.7227 62.2861H24.4854ZM33.1465 65H34.3359V60.8574C34.3359 59.627 35.0674 58.8203 36.25 58.8203C37.3643 58.8203 37.9316 59.4971 37.9316 60.625V65H39.1211V60.4062C39.1211 58.8203 38.1777 57.7676 36.6191 57.7676C35.5391 57.7676 34.7598 58.2324 34.3633 59.0254H34.3359V55.1357H33.1465V65ZM42.9766 64.1113C42.1221 64.1113 41.5547 63.667 41.5547 62.9902C41.5547 62.3203 42.1016 61.8965 43.0586 61.835L44.959 61.7188V62.2998C44.959 63.3252 44.0977 64.1113 42.9766 64.1113ZM42.71 65.123C43.667 65.123 44.5693 64.5898 44.9932 63.7764H45.0205V65H46.1484V60.085C46.1484 58.6699 45.0957 57.7676 43.4277 57.7676C41.7461 57.7676 40.6934 58.7109 40.6113 59.9414H41.7598C41.9102 59.2441 42.4844 58.8135 43.4004 58.8135C44.3848 58.8135 44.959 59.333 44.959 60.2012V60.7959L42.9219 60.9121C41.2812 61.0078 40.3447 61.7734 40.3447 62.9902C40.3447 64.2686 41.2949 65.123 42.71 65.123ZM47.6592 65H48.8486V60.5703C48.8486 59.5654 49.4502 58.9023 50.373 58.9023C50.6602 58.9023 50.9131 58.9365 51.0088 58.9707V57.8154C50.9131 57.8018 50.7354 57.7676 50.5303 57.7676C49.6963 57.7676 49.04 58.2666 48.8076 59.0527H48.7803V57.8906H47.6592V65ZM54.4883 58.7998C55.6094 58.7998 56.3545 59.6475 56.3818 60.8369H52.5195C52.5947 59.6543 53.374 58.7998 54.4883 58.7998ZM56.3545 62.9629C56.1562 63.6328 55.4932 64.0908 54.5908 64.0908C53.3125 64.0908 52.5127 63.1953 52.5127 61.835V61.7666H57.6123V61.3154C57.6123 59.1621 56.4297 57.7676 54.5088 57.7676C52.5469 57.7676 51.2891 59.2646 51.2891 61.4727C51.2891 63.708 52.5264 65.123 54.5635 65.123C56.1152 65.123 57.3184 64.207 57.5234 62.9629H56.3545ZM59.8203 65.0684C60.2578 65.0684 60.5996 64.7266 60.5996 64.2891C60.5996 63.8516 60.2578 63.5098 59.8203 63.5098C59.3828 63.5098 59.041 63.8516 59.041 64.2891C59.041 64.7266 59.3828 65.0684 59.8203 65.0684ZM63.375 65.0684C63.8125 65.0684 64.1543 64.7266 64.1543 64.2891C64.1543 63.8516 63.8125 63.5098 63.375 63.5098C62.9375 63.5098 62.5957 63.8516 62.5957 64.2891C62.5957 64.7266 62.9375 65.0684 63.375 65.0684ZM66.9297 65.0684C67.3672 65.0684 67.709 64.7266 67.709 64.2891C67.709 63.8516 67.3672 63.5098 66.9297 63.5098C66.4922 63.5098 66.1504 63.8516 66.1504 64.2891C66.1504 64.7266 66.4922 65.0684 66.9297 65.0684Z" fill="#595959"/>
<path d="M12 76H208V108H12V76Z" fill="white"/>
<path d="M24.4854 94.2861C24.6016 96.0293 26.0508 97.1641 28.1426 97.1641C30.4121 97.1641 31.834 96.0361 31.834 94.2314C31.834 92.8164 31.0068 92.0303 28.9629 91.5176L27.9307 91.2441C26.5908 90.8955 26.0439 90.4512 26.0439 89.7061C26.0439 88.7422 26.9326 88.0791 28.2109 88.0791C29.4961 88.0791 30.3506 88.7285 30.46 89.7881H31.6904C31.6357 88.1338 30.2139 86.9717 28.252 86.9717C26.2012 86.9717 24.7656 88.1201 24.7656 89.7607C24.7656 91.1006 25.5723 91.9004 27.3906 92.3652L28.6553 92.6934C29.9814 93.0352 30.5625 93.5479 30.5625 94.3818C30.5625 95.3525 29.5918 96.0566 28.2588 96.0566C26.8506 96.0566 25.8389 95.3525 25.7227 94.2861H24.4854ZM35.9355 90.7998C37.0566 90.7998 37.8018 91.6475 37.8291 92.8369H33.9668C34.042 91.6543 34.8213 90.7998 35.9355 90.7998ZM37.8018 94.9629C37.6035 95.6328 36.9404 96.0908 36.0381 96.0908C34.7598 96.0908 33.96 95.1953 33.96 93.835V93.7666H39.0596V93.3154C39.0596 91.1621 37.877 89.7676 35.9561 89.7676C33.9941 89.7676 32.7363 91.2646 32.7363 93.4727C32.7363 95.708 33.9736 97.123 36.0107 97.123C37.5625 97.123 38.7656 96.207 38.9707 94.9629H37.8018ZM40.2627 97H41.4521V92.8164C41.4521 91.6133 42.1836 90.8203 43.3047 90.8203C44.3984 90.8203 44.9385 91.4492 44.9385 92.5977V97H46.1279V92.3857C46.1279 90.7725 45.2256 89.7676 43.667 89.7676C42.5664 89.7676 41.8076 90.2598 41.4111 91.0254H41.3838V89.8906H40.2627V97ZM50.3389 97.123C51.3643 97.123 52.1777 96.6172 52.6357 95.7969H52.6562V97H53.791V87.1357H52.6016V91.0459H52.5742C52.1504 90.2666 51.3301 89.7676 50.3115 89.7676C48.5205 89.7676 47.2969 91.2168 47.2969 93.4453C47.2969 95.6738 48.5273 97.123 50.3389 97.123ZM50.5645 90.8135C51.7881 90.8135 52.6084 91.8594 52.6084 93.4453C52.6084 95.0381 51.7881 96.0771 50.5645 96.0771C49.3066 96.0771 48.5137 95.0586 48.5137 93.4453C48.5137 91.8389 49.3066 90.8135 50.5645 90.8135ZM60.6133 96.1113C59.7588 96.1113 59.1914 95.667 59.1914 94.9902C59.1914 94.3203 59.7383 93.8965 60.6953 93.835L62.5957 93.7188V94.2998C62.5957 95.3252 61.7344 96.1113 60.6133 96.1113ZM60.3467 97.123C61.3037 97.123 62.2061 96.5898 62.6299 95.7764H62.6572V97H63.7852V92.085C63.7852 90.6699 62.7324 89.7676 61.0645 89.7676C59.3828 89.7676 58.3301 90.7109 58.248 91.9414H59.3965C59.5469 91.2441 60.1211 90.8135 61.0371 90.8135C62.0215 90.8135 62.5957 91.333 62.5957 92.2012V92.7959L60.5586 92.9121C58.918 93.0078 57.9814 93.7734 57.9814 94.9902C57.9814 96.2686 58.9316 97.123 60.3467 97.123ZM65.1729 91.8525C65.1729 92.8232 65.7881 93.4658 67.0391 93.7871L68.29 94.1084C69.0898 94.3203 69.3838 94.5938 69.3838 95.0996C69.3838 95.7422 68.7891 96.1523 67.8252 96.1523C66.8613 96.1523 66.3008 95.7559 66.1709 95.0176H64.9814C65.1045 96.2754 66.1914 97.123 67.75 97.123C69.4111 97.123 70.5801 96.248 70.5801 95.0107C70.5801 93.9648 70.0605 93.4453 68.625 93.083L67.5244 92.8164C66.7178 92.6113 66.3418 92.2832 66.3418 91.791C66.3418 91.1689 66.916 90.7383 67.7842 90.7383C68.6592 90.7383 69.2129 91.1621 69.2949 91.8457H70.4297C70.375 90.6426 69.2949 89.7676 67.8252 89.7676C66.2598 89.7676 65.1729 90.6357 65.1729 91.8525ZM84.5938 97V87.1357H83.165L79.7607 95.3662H79.7061L76.3018 87.1357H74.873V97H76.0215V89.3984H76.0693L79.2139 96.9316H80.2529L83.3975 89.3984H83.4453V97H84.5938ZM89.1738 90.7998C90.2949 90.7998 91.04 91.6475 91.0674 92.8369H87.2051C87.2803 91.6543 88.0596 90.7998 89.1738 90.7998ZM91.04 94.9629C90.8418 95.6328 90.1787 96.0908 89.2764 96.0908C87.998 96.0908 87.1982 95.1953 87.1982 93.835V93.7666H92.2979V93.3154C92.2979 91.1621 91.1152 89.7676 89.1943 89.7676C87.2324 89.7676 85.9746 91.2646 85.9746 93.4727C85.9746 95.708 87.2119 97.123 89.249 97.123C90.8008 97.123 92.0039 96.207 92.209 94.9629H91.04ZM93.3779 91.8525C93.3779 92.8232 93.9932 93.4658 95.2441 93.7871L96.4951 94.1084C97.2949 94.3203 97.5889 94.5938 97.5889 95.0996C97.5889 95.7422 96.9941 96.1523 96.0303 96.1523C95.0664 96.1523 94.5059 95.7559 94.376 95.0176H93.1865C93.3096 96.2754 94.3965 97.123 95.9551 97.123C97.6162 97.123 98.7852 96.248 98.7852 95.0107C98.7852 93.9648 98.2656 93.4453 96.8301 93.083L95.7295 92.8164C94.9229 92.6113 94.5469 92.2832 94.5469 91.791C94.5469 91.1689 95.1211 90.7383 95.9893 90.7383C96.8643 90.7383 97.418 91.1621 97.5 91.8457H98.6348C98.5801 90.6426 97.5 89.7676 96.0303 89.7676C94.4648 89.7676 93.3779 90.6357 93.3779 91.8525ZM99.8994 91.8525C99.8994 92.8232 100.515 93.4658 101.766 93.7871L103.017 94.1084C103.816 94.3203 104.11 94.5938 104.11 95.0996C104.11 95.7422 103.516 96.1523 102.552 96.1523C101.588 96.1523 101.027 95.7559 100.897 95.0176H99.708C99.8311 96.2754 100.918 97.123 102.477 97.123C104.138 97.123 105.307 96.248 105.307 95.0107C105.307 93.9648 104.787 93.4453 103.352 93.083L102.251 92.8164C101.444 92.6113 101.068 92.2832 101.068 91.791C101.068 91.1689 101.643 90.7383 102.511 90.7383C103.386 90.7383 103.939 91.1621 104.021 91.8457H105.156C105.102 90.6426 104.021 89.7676 102.552 89.7676C100.986 89.7676 99.8994 90.6357 99.8994 91.8525ZM108.889 96.1113C108.034 96.1113 107.467 95.667 107.467 94.9902C107.467 94.3203 108.014 93.8965 108.971 93.835L110.871 93.7188V94.2998C110.871 95.3252 110.01 96.1113 108.889 96.1113ZM108.622 97.123C109.579 97.123 110.481 96.5898 110.905 95.7764H110.933V97H112.061V92.085C112.061 90.6699 111.008 89.7676 109.34 89.7676C107.658 89.7676 106.605 90.7109 106.523 91.9414H107.672C107.822 91.2441 108.396 90.8135 109.312 90.8135C110.297 90.8135 110.871 91.333 110.871 92.2012V92.7959L108.834 92.9121C107.193 93.0078 106.257 93.7734 106.257 94.9902C106.257 96.2686 107.207 97.123 108.622 97.123ZM116.463 96.0088C115.239 96.0088 114.439 95.0107 114.439 93.418C114.439 91.8252 115.239 90.8135 116.463 90.8135C117.7 90.8135 118.527 91.8525 118.527 93.418C118.527 94.9834 117.7 96.0088 116.463 96.0088ZM116.504 99.6797C118.466 99.6797 119.717 98.5518 119.717 96.8564V89.8906H118.582V91.0869H118.562C118.09 90.2598 117.256 89.7676 116.251 89.7676C114.412 89.7676 113.223 91.1895 113.223 93.418C113.223 95.626 114.412 97.0547 116.224 97.0547C117.222 97.0547 118.062 96.5488 118.5 95.7764H118.527V96.8975C118.527 97.957 117.782 98.668 116.552 98.668C115.663 98.668 114.959 98.2373 114.727 97.5879H113.503C113.701 98.7979 114.938 99.6797 116.504 99.6797ZM124.119 90.7998C125.24 90.7998 125.985 91.6475 126.013 92.8369H122.15C122.226 91.6543 123.005 90.7998 124.119 90.7998ZM125.985 94.9629C125.787 95.6328 125.124 96.0908 124.222 96.0908C122.943 96.0908 122.144 95.1953 122.144 93.835V93.7666H127.243V93.3154C127.243 91.1621 126.061 89.7676 124.14 89.7676C122.178 89.7676 120.92 91.2646 120.92 93.4727C120.92 95.708 122.157 97.123 124.194 97.123C125.746 97.123 126.949 96.207 127.154 94.9629H125.985Z" fill="#595959"/>
<path d="M12 108H208V140H12V108Z" fill="white"/>
<path d="M24.4854 126.286C24.6016 128.029 26.0508 129.164 28.1426 129.164C30.4121 129.164 31.834 128.036 31.834 126.231C31.834 124.816 31.0068 124.03 28.9629 123.518L27.9307 123.244C26.5908 122.896 26.0439 122.451 26.0439 121.706C26.0439 120.742 26.9326 120.079 28.2109 120.079C29.4961 120.079 30.3506 120.729 30.46 121.788H31.6904C31.6357 120.134 30.2139 118.972 28.252 118.972C26.2012 118.972 24.7656 120.12 24.7656 121.761C24.7656 123.101 25.5723 123.9 27.3906 124.365L28.6553 124.693C29.9814 125.035 30.5625 125.548 30.5625 126.382C30.5625 127.353 29.5918 128.057 28.2588 128.057C26.8506 128.057 25.8389 127.353 25.7227 126.286H24.4854ZM33.1465 129H34.3359V124.857C34.3359 123.627 35.0674 122.82 36.25 122.82C37.3643 122.82 37.9316 123.497 37.9316 124.625V129H39.1211V124.406C39.1211 122.82 38.1777 121.768 36.6191 121.768C35.5391 121.768 34.7598 122.232 34.3633 123.025H34.3359V119.136H33.1465V129ZM42.9766 128.111C42.1221 128.111 41.5547 127.667 41.5547 126.99C41.5547 126.32 42.1016 125.896 43.0586 125.835L44.959 125.719V126.3C44.959 127.325 44.0977 128.111 42.9766 128.111ZM42.71 129.123C43.667 129.123 44.5693 128.59 44.9932 127.776H45.0205V129H46.1484V124.085C46.1484 122.67 45.0957 121.768 43.4277 121.768C41.7461 121.768 40.6934 122.711 40.6113 123.941H41.7598C41.9102 123.244 42.4844 122.813 43.4004 122.813C44.3848 122.813 44.959 123.333 44.959 124.201V124.796L42.9219 124.912C41.2812 125.008 40.3447 125.773 40.3447 126.99C40.3447 128.269 41.2949 129.123 42.71 129.123ZM47.6592 129H48.8486V124.57C48.8486 123.565 49.4502 122.902 50.373 122.902C50.6602 122.902 50.9131 122.937 51.0088 122.971V121.815C50.9131 121.802 50.7354 121.768 50.5303 121.768C49.6963 121.768 49.04 122.267 48.8076 123.053H48.7803V121.891H47.6592V129ZM54.4883 122.8C55.6094 122.8 56.3545 123.647 56.3818 124.837H52.5195C52.5947 123.654 53.374 122.8 54.4883 122.8ZM56.3545 126.963C56.1562 127.633 55.4932 128.091 54.5908 128.091C53.3125 128.091 52.5127 127.195 52.5127 125.835V125.767H57.6123V125.315C57.6123 123.162 56.4297 121.768 54.5088 121.768C52.5469 121.768 51.2891 123.265 51.2891 125.473C51.2891 127.708 52.5264 129.123 54.5635 129.123C56.1152 129.123 57.3184 128.207 57.5234 126.963H56.3545ZM61.748 129H62.9375V121.891H61.748V129ZM62.3428 120.694C62.7529 120.694 63.0879 120.359 63.0879 119.956C63.0879 119.546 62.7529 119.218 62.3428 119.218C61.9395 119.218 61.6045 119.546 61.6045 119.956C61.6045 120.359 61.9395 120.694 62.3428 120.694ZM64.5439 129H65.7334V124.816C65.7334 123.613 66.4648 122.82 67.5859 122.82C68.6797 122.82 69.2197 123.449 69.2197 124.598V129H70.4092V124.386C70.4092 122.772 69.5068 121.768 67.9482 121.768C66.8477 121.768 66.0889 122.26 65.6924 123.025H65.665V121.891H64.5439V129ZM77.1426 128.111C76.2881 128.111 75.7207 127.667 75.7207 126.99C75.7207 126.32 76.2676 125.896 77.2246 125.835L79.125 125.719V126.3C79.125 127.325 78.2637 128.111 77.1426 128.111ZM76.876 129.123C77.833 129.123 78.7354 128.59 79.1592 127.776H79.1865V129H80.3145V124.085C80.3145 122.67 79.2617 121.768 77.5938 121.768C75.9121 121.768 74.8594 122.711 74.7773 123.941H75.9258C76.0762 123.244 76.6504 122.813 77.5664 122.813C78.5508 122.813 79.125 123.333 79.125 124.201V124.796L77.0879 124.912C75.4473 125.008 74.5107 125.773 74.5107 126.99C74.5107 128.269 75.4609 129.123 76.876 129.123ZM87.5879 128.009C86.3643 128.009 85.5645 127.011 85.5645 125.418C85.5645 123.825 86.3643 122.813 87.5879 122.813C88.8252 122.813 89.6523 123.853 89.6523 125.418C89.6523 126.983 88.8252 128.009 87.5879 128.009ZM87.6289 131.68C89.5908 131.68 90.8418 130.552 90.8418 128.856V121.891H89.707V123.087H89.6865C89.2148 122.26 88.3809 121.768 87.376 121.768C85.5371 121.768 84.3477 123.189 84.3477 125.418C84.3477 127.626 85.5371 129.055 87.3486 129.055C88.3467 129.055 89.1875 128.549 89.625 127.776H89.6523V128.897C89.6523 129.957 88.9072 130.668 87.6768 130.668C86.7881 130.668 86.084 130.237 85.8516 129.588H84.6279C84.8262 130.798 86.0635 131.68 87.6289 131.68ZM92.3936 129H93.583V124.57C93.583 123.565 94.1846 122.902 95.1074 122.902C95.3945 122.902 95.6475 122.937 95.7432 122.971V121.815C95.6475 121.802 95.4697 121.768 95.2646 121.768C94.4307 121.768 93.7744 122.267 93.542 123.053H93.5146V121.891H92.3936V129ZM99.3184 129.123C101.28 129.123 102.606 127.708 102.606 125.445C102.606 123.176 101.28 121.768 99.3184 121.768C97.3496 121.768 96.0234 123.176 96.0234 125.445C96.0234 127.708 97.3496 129.123 99.3184 129.123ZM99.3184 128.077C98.0605 128.077 97.2334 127.12 97.2334 125.445C97.2334 123.771 98.0605 122.813 99.3184 122.813C100.576 122.813 101.396 123.771 101.396 125.445C101.396 127.12 100.576 128.077 99.3184 128.077ZM109.647 121.891H108.458V126.067C108.458 127.277 107.761 128.07 106.605 128.07C105.505 128.07 104.965 127.448 104.965 126.293V121.891H103.775V126.505C103.775 128.118 104.685 129.123 106.236 129.123C107.33 129.123 108.068 128.665 108.492 127.845H108.52V129H109.647V121.891ZM114.645 121.768C113.612 121.768 112.785 122.294 112.348 123.094H112.32V121.891H111.192V131.372H112.382V127.845H112.409C112.833 128.624 113.653 129.123 114.672 129.123C116.463 129.123 117.687 127.674 117.687 125.445C117.687 123.217 116.456 121.768 114.645 121.768ZM114.412 128.077C113.195 128.077 112.375 127.031 112.375 125.445C112.375 123.866 113.195 122.813 114.412 122.813C115.677 122.813 116.47 123.839 116.47 125.445C116.47 127.059 115.677 128.077 114.412 128.077Z" fill="#595959"/>
<path d="M12 140H208V172H12V140Z" fill="white"/>
<path d="M24.4854 158.286C24.6016 160.029 26.0508 161.164 28.1426 161.164C30.4121 161.164 31.834 160.036 31.834 158.231C31.834 156.816 31.0068 156.03 28.9629 155.518L27.9307 155.244C26.5908 154.896 26.0439 154.451 26.0439 153.706C26.0439 152.742 26.9326 152.079 28.2109 152.079C29.4961 152.079 30.3506 152.729 30.46 153.788H31.6904C31.6357 152.134 30.2139 150.972 28.252 150.972C26.2012 150.972 24.7656 152.12 24.7656 153.761C24.7656 155.101 25.5723 155.9 27.3906 156.365L28.6553 156.693C29.9814 157.035 30.5625 157.548 30.5625 158.382C30.5625 159.353 29.5918 160.057 28.2588 160.057C26.8506 160.057 25.8389 159.353 25.7227 158.286H24.4854ZM33.1465 161H34.3359V156.857C34.3359 155.627 35.0674 154.82 36.25 154.82C37.3643 154.82 37.9316 155.497 37.9316 156.625V161H39.1211V156.406C39.1211 154.82 38.1777 153.768 36.6191 153.768C35.5391 153.768 34.7598 154.232 34.3633 155.025H34.3359V151.136H33.1465V161ZM42.9766 160.111C42.1221 160.111 41.5547 159.667 41.5547 158.99C41.5547 158.32 42.1016 157.896 43.0586 157.835L44.959 157.719V158.3C44.959 159.325 44.0977 160.111 42.9766 160.111ZM42.71 161.123C43.667 161.123 44.5693 160.59 44.9932 159.776H45.0205V161H46.1484V156.085C46.1484 154.67 45.0957 153.768 43.4277 153.768C41.7461 153.768 40.6934 154.711 40.6113 155.941H41.7598C41.9102 155.244 42.4844 154.813 43.4004 154.813C44.3848 154.813 44.959 155.333 44.959 156.201V156.796L42.9219 156.912C41.2812 157.008 40.3447 157.773 40.3447 158.99C40.3447 160.269 41.2949 161.123 42.71 161.123ZM47.6592 161H48.8486V156.57C48.8486 155.565 49.4502 154.902 50.373 154.902C50.6602 154.902 50.9131 154.937 51.0088 154.971V153.815C50.9131 153.802 50.7354 153.768 50.5303 153.768C49.6963 153.768 49.04 154.267 48.8076 155.053H48.7803V153.891H47.6592V161ZM54.4883 154.8C55.6094 154.8 56.3545 155.647 56.3818 156.837H52.5195C52.5947 155.654 53.374 154.8 54.4883 154.8ZM56.3545 158.963C56.1562 159.633 55.4932 160.091 54.5908 160.091C53.3125 160.091 52.5127 159.195 52.5127 157.835V157.767H57.6123V157.315C57.6123 155.162 56.4297 153.768 54.5088 153.768C52.5469 153.768 51.2891 155.265 51.2891 157.473C51.2891 159.708 52.5264 161.123 54.5635 161.123C56.1152 161.123 57.3184 160.207 57.5234 158.963H56.3545ZM64.6328 161.123C66.5947 161.123 67.9209 159.708 67.9209 157.445C67.9209 155.176 66.5947 153.768 64.6328 153.768C62.6641 153.768 61.3379 155.176 61.3379 157.445C61.3379 159.708 62.6641 161.123 64.6328 161.123ZM64.6328 160.077C63.375 160.077 62.5479 159.12 62.5479 157.445C62.5479 155.771 63.375 154.813 64.6328 154.813C65.8906 154.813 66.7109 155.771 66.7109 157.445C66.7109 159.12 65.8906 160.077 64.6328 160.077ZM69.124 161H70.3135V156.816C70.3135 155.613 71.0449 154.82 72.166 154.82C73.2598 154.82 73.7998 155.449 73.7998 156.598V161H74.9893V156.386C74.9893 154.772 74.0869 153.768 72.5283 153.768C71.4277 153.768 70.6689 154.26 70.2725 155.025H70.2451V153.891H69.124V161ZM81.7227 160.111C80.8682 160.111 80.3008 159.667 80.3008 158.99C80.3008 158.32 80.8477 157.896 81.8047 157.835L83.7051 157.719V158.3C83.7051 159.325 82.8438 160.111 81.7227 160.111ZM81.4561 161.123C82.4131 161.123 83.3154 160.59 83.7393 159.776H83.7666V161H84.8945V156.085C84.8945 154.67 83.8418 153.768 82.1738 153.768C80.4922 153.768 79.4395 154.711 79.3574 155.941H80.5059C80.6562 155.244 81.2305 154.813 82.1465 154.813C83.1309 154.813 83.7051 155.333 83.7051 156.201V156.796L81.668 156.912C80.0273 157.008 79.0908 157.773 79.0908 158.99C79.0908 160.269 80.041 161.123 81.4561 161.123ZM90.6914 161V156.728H95.0596V155.634H90.6914V152.243H95.4492V151.136H89.4609V161H90.6914ZM96.6729 161H97.8623V156.57C97.8623 155.565 98.4639 154.902 99.3867 154.902C99.6738 154.902 99.9268 154.937 100.022 154.971V153.815C99.9268 153.802 99.749 153.768 99.5439 153.768C98.71 153.768 98.0537 154.267 97.8213 155.053H97.7939V153.891H96.6729V161ZM101.055 161H102.244V153.891H101.055V161ZM101.649 152.694C102.06 152.694 102.395 152.359 102.395 151.956C102.395 151.546 102.06 151.218 101.649 151.218C101.246 151.218 100.911 151.546 100.911 151.956C100.911 152.359 101.246 152.694 101.649 152.694ZM106.701 154.8C107.822 154.8 108.567 155.647 108.595 156.837H104.732C104.808 155.654 105.587 154.8 106.701 154.8ZM108.567 158.963C108.369 159.633 107.706 160.091 106.804 160.091C105.525 160.091 104.726 159.195 104.726 157.835V157.767H109.825V157.315C109.825 155.162 108.643 153.768 106.722 153.768C104.76 153.768 103.502 155.265 103.502 157.473C103.502 159.708 104.739 161.123 106.776 161.123C108.328 161.123 109.531 160.207 109.736 158.963H108.567ZM111.028 161H112.218V156.816C112.218 155.613 112.949 154.82 114.07 154.82C115.164 154.82 115.704 155.449 115.704 156.598V161H116.894V156.386C116.894 154.772 115.991 153.768 114.433 153.768C113.332 153.768 112.573 154.26 112.177 155.025H112.149V153.891H111.028V161ZM121.104 161.123C122.13 161.123 122.943 160.617 123.401 159.797H123.422V161H124.557V151.136H123.367V155.046H123.34C122.916 154.267 122.096 153.768 121.077 153.768C119.286 153.768 118.062 155.217 118.062 157.445C118.062 159.674 119.293 161.123 121.104 161.123ZM121.33 154.813C122.554 154.813 123.374 155.859 123.374 157.445C123.374 159.038 122.554 160.077 121.33 160.077C120.072 160.077 119.279 159.059 119.279 157.445C119.279 155.839 120.072 154.813 121.33 154.813ZM127.257 154.615L128.193 151.136H126.929L126.266 154.615H127.257ZM128.692 155.853C128.692 156.823 129.308 157.466 130.559 157.787L131.81 158.108C132.609 158.32 132.903 158.594 132.903 159.1C132.903 159.742 132.309 160.152 131.345 160.152C130.381 160.152 129.82 159.756 129.69 159.018H128.501C128.624 160.275 129.711 161.123 131.27 161.123C132.931 161.123 134.1 160.248 134.1 159.011C134.1 157.965 133.58 157.445 132.145 157.083L131.044 156.816C130.237 156.611 129.861 156.283 129.861 155.791C129.861 155.169 130.436 154.738 131.304 154.738C132.179 154.738 132.732 155.162 132.814 155.846H133.949C133.895 154.643 132.814 153.768 131.345 153.768C129.779 153.768 128.692 154.636 128.692 155.853ZM142.118 161V152.243H145.229V151.136H137.777V152.243H140.888V161H142.118ZM146.062 161H147.252V153.891H146.062V161ZM146.657 152.694C147.067 152.694 147.402 152.359 147.402 151.956C147.402 151.546 147.067 151.218 146.657 151.218C146.254 151.218 145.919 151.546 145.919 151.956C145.919 152.359 146.254 152.694 146.657 152.694ZM148.858 161H150.048V156.543C150.048 155.559 150.731 154.82 151.675 154.82C152.557 154.82 153.131 155.381 153.131 156.235V161H154.32V156.481C154.32 155.518 154.983 154.82 155.927 154.82C156.863 154.82 157.403 155.395 157.403 156.365V161H158.593V156.092C158.593 154.684 157.684 153.768 156.275 153.768C155.277 153.768 154.443 154.273 154.047 155.121H154.02C153.712 154.26 152.994 153.768 152.023 153.768C151.066 153.768 150.342 154.273 150.007 155.025H149.979V153.891H148.858V161ZM162.961 154.8C164.082 154.8 164.827 155.647 164.854 156.837H160.992C161.067 155.654 161.847 154.8 162.961 154.8ZM164.827 158.963C164.629 159.633 163.966 160.091 163.063 160.091C161.785 160.091 160.985 159.195 160.985 157.835V157.767H166.085V157.315C166.085 155.162 164.902 153.768 162.981 153.768C161.02 153.768 159.762 155.265 159.762 157.473C159.762 159.708 160.999 161.123 163.036 161.123C164.588 161.123 165.791 160.207 165.996 158.963H164.827ZM167.35 161H168.539V151.136H167.35V161ZM170.207 161H171.396V153.891H170.207V161ZM170.802 152.694C171.212 152.694 171.547 152.359 171.547 151.956C171.547 151.546 171.212 151.218 170.802 151.218C170.398 151.218 170.063 151.546 170.063 151.956C170.063 152.359 170.398 152.694 170.802 152.694ZM173.003 161H174.192V156.816C174.192 155.613 174.924 154.82 176.045 154.82C177.139 154.82 177.679 155.449 177.679 156.598V161H178.868V156.386C178.868 154.772 177.966 153.768 176.407 153.768C175.307 153.768 174.548 154.26 174.151 155.025H174.124V153.891H173.003V161ZM183.236 154.8C184.357 154.8 185.103 155.647 185.13 156.837H181.268C181.343 155.654 182.122 154.8 183.236 154.8ZM185.103 158.963C184.904 159.633 184.241 160.091 183.339 160.091C182.061 160.091 181.261 159.195 181.261 157.835V157.767H186.36V157.315C186.36 155.162 185.178 153.768 183.257 153.768C181.295 153.768 180.037 155.265 180.037 157.473C180.037 159.708 181.274 161.123 183.312 161.123C184.863 161.123 186.066 160.207 186.271 158.963H185.103Z" fill="#595959"/>
<path d="M12 172H208V204H12V172Z" fill="white"/>
<path d="M24.4854 190.286C24.6016 192.029 26.0508 193.164 28.1426 193.164C30.4121 193.164 31.834 192.036 31.834 190.231C31.834 188.816 31.0068 188.03 28.9629 187.518L27.9307 187.244C26.5908 186.896 26.0439 186.451 26.0439 185.706C26.0439 184.742 26.9326 184.079 28.2109 184.079C29.4961 184.079 30.3506 184.729 30.46 185.788H31.6904C31.6357 184.134 30.2139 182.972 28.252 182.972C26.2012 182.972 24.7656 184.12 24.7656 185.761C24.7656 187.101 25.5723 187.9 27.3906 188.365L28.6553 188.693C29.9814 189.035 30.5625 189.548 30.5625 190.382C30.5625 191.353 29.5918 192.057 28.2588 192.057C26.8506 192.057 25.8389 191.353 25.7227 190.286H24.4854ZM33.1465 193H34.3359V188.857C34.3359 187.627 35.0674 186.82 36.25 186.82C37.3643 186.82 37.9316 187.497 37.9316 188.625V193H39.1211V188.406C39.1211 186.82 38.1777 185.768 36.6191 185.768C35.5391 185.768 34.7598 186.232 34.3633 187.025H34.3359V183.136H33.1465V193ZM42.9766 192.111C42.1221 192.111 41.5547 191.667 41.5547 190.99C41.5547 190.32 42.1016 189.896 43.0586 189.835L44.959 189.719V190.3C44.959 191.325 44.0977 192.111 42.9766 192.111ZM42.71 193.123C43.667 193.123 44.5693 192.59 44.9932 191.776H45.0205V193H46.1484V188.085C46.1484 186.67 45.0957 185.768 43.4277 185.768C41.7461 185.768 40.6934 186.711 40.6113 187.941H41.7598C41.9102 187.244 42.4844 186.813 43.4004 186.813C44.3848 186.813 44.959 187.333 44.959 188.201V188.796L42.9219 188.912C41.2812 189.008 40.3447 189.773 40.3447 190.99C40.3447 192.269 41.2949 193.123 42.71 193.123ZM47.6592 193H48.8486V188.57C48.8486 187.565 49.4502 186.902 50.373 186.902C50.6602 186.902 50.9131 186.937 51.0088 186.971V185.815C50.9131 185.802 50.7354 185.768 50.5303 185.768C49.6963 185.768 49.04 186.267 48.8076 187.053H48.7803V185.891H47.6592V193ZM54.4883 186.8C55.6094 186.8 56.3545 187.647 56.3818 188.837H52.5195C52.5947 187.654 53.374 186.8 54.4883 186.8ZM56.3545 190.963C56.1562 191.633 55.4932 192.091 54.5908 192.091C53.3125 192.091 52.5127 191.195 52.5127 189.835V189.767H57.6123V189.315C57.6123 187.162 56.4297 185.768 54.5088 185.768C52.5469 185.768 51.2891 187.265 51.2891 189.473C51.2891 191.708 52.5264 193.123 54.5635 193.123C56.1152 193.123 57.3184 192.207 57.5234 190.963H56.3545ZM62.0693 184.175V185.891H61.0098V186.868H62.0693V191.154C62.0693 192.521 62.5752 193.055 63.8809 193.055C64.1611 193.055 64.4893 193.034 64.6328 193V192.002C64.5508 192.016 64.2773 192.036 64.1406 192.036C63.5322 192.036 63.2588 191.742 63.2588 191.093V186.868H64.6396V185.891H63.2588V184.175H62.0693ZM68.6523 193.123C70.6143 193.123 71.9404 191.708 71.9404 189.445C71.9404 187.176 70.6143 185.768 68.6523 185.768C66.6836 185.768 65.3574 187.176 65.3574 189.445C65.3574 191.708 66.6836 193.123 68.6523 193.123ZM68.6523 192.077C67.3945 192.077 66.5674 191.12 66.5674 189.445C66.5674 187.771 67.3945 186.813 68.6523 186.813C69.9102 186.813 70.7305 187.771 70.7305 189.445C70.7305 191.12 69.9102 192.077 68.6523 192.077ZM78.3594 192.111C77.5049 192.111 76.9375 191.667 76.9375 190.99C76.9375 190.32 77.4844 189.896 78.4414 189.835L80.3418 189.719V190.3C80.3418 191.325 79.4805 192.111 78.3594 192.111ZM78.0928 193.123C79.0498 193.123 79.9521 192.59 80.376 191.776H80.4033V193H81.5312V188.085C81.5312 186.67 80.4785 185.768 78.8105 185.768C77.1289 185.768 76.0762 186.711 75.9941 187.941H77.1426C77.293 187.244 77.8672 186.813 78.7832 186.813C79.7676 186.813 80.3418 187.333 80.3418 188.201V188.796L78.3047 188.912C76.6641 189.008 75.7275 189.773 75.7275 190.99C75.7275 192.269 76.6777 193.123 78.0928 193.123ZM86.0977 183.136V193H87.3281V189.479H89.6045C91.457 189.479 92.7764 188.174 92.7764 186.301C92.7764 184.435 91.4707 183.136 89.6182 183.136H86.0977ZM87.3281 184.229H89.2969C90.7119 184.229 91.5117 184.995 91.5117 186.301C91.5117 187.613 90.7051 188.386 89.2969 188.386H87.3281V184.229ZM95.7363 192.111C94.8818 192.111 94.3145 191.667 94.3145 190.99C94.3145 190.32 94.8613 189.896 95.8184 189.835L97.7188 189.719V190.3C97.7188 191.325 96.8574 192.111 95.7363 192.111ZM95.4697 193.123C96.4268 193.123 97.3291 192.59 97.7529 191.776H97.7803V193H98.9082V188.085C98.9082 186.67 97.8555 185.768 96.1875 185.768C94.5059 185.768 93.4531 186.711 93.3711 187.941H94.5195C94.6699 187.244 95.2441 186.813 96.1602 186.813C97.1445 186.813 97.7188 187.333 97.7188 188.201V188.796L95.6816 188.912C94.041 189.008 93.1045 189.773 93.1045 190.99C93.1045 192.269 94.0547 193.123 95.4697 193.123ZM103.311 192.009C102.087 192.009 101.287 191.011 101.287 189.418C101.287 187.825 102.087 186.813 103.311 186.813C104.548 186.813 105.375 187.853 105.375 189.418C105.375 190.983 104.548 192.009 103.311 192.009ZM103.352 195.68C105.313 195.68 106.564 194.552 106.564 192.856V185.891H105.43V187.087H105.409C104.938 186.26 104.104 185.768 103.099 185.768C101.26 185.768 100.07 187.189 100.07 189.418C100.07 191.626 101.26 193.055 103.071 193.055C104.069 193.055 104.91 192.549 105.348 191.776H105.375V192.897C105.375 193.957 104.63 194.668 103.399 194.668C102.511 194.668 101.807 194.237 101.574 193.588H100.351C100.549 194.798 101.786 195.68 103.352 195.68ZM110.967 186.8C112.088 186.8 112.833 187.647 112.86 188.837H108.998C109.073 187.654 109.853 186.8 110.967 186.8ZM112.833 190.963C112.635 191.633 111.972 192.091 111.069 192.091C109.791 192.091 108.991 191.195 108.991 189.835V189.767H114.091V189.315C114.091 187.162 112.908 185.768 110.987 185.768C109.025 185.768 107.768 187.265 107.768 189.473C107.768 191.708 109.005 193.123 111.042 193.123C112.594 193.123 113.797 192.207 114.002 190.963H112.833Z" fill="#595959"/>
</g>
<rect x="34" y="208" width="8.48528" height="8.48528" transform="rotate(-45 34 208)" fill="white"/>
</g>
<defs>
<filter id="filter0_d_1_257" x="0" y="0" width="220" height="230" filterUnits="userSpaceOnUse" color-interpolation-filters="sRGB">
<feFlood flood-opacity="0" result="BackgroundImageFix"/>
<feColorMatrix in="SourceAlpha" type="matrix" values="0 0 0 0 0 0 0 0 0 0 0 0 0 0 0 0 0 0 127 0" result="hardAlpha"/>
<feOffset dy="4"/>
<feGaussianBlur stdDeviation="6"/>
<feColorMatrix type="matrix" values="0 0 0 0 0 0 0 0 0 0 0 0 0 0 0 0 0 0 0.15 0"/>
<feBlend mode="normal" in2="BackgroundImageFix" result="effect1_dropShadow_1_257"/>
<feBlend mode="normal" in="SourceGraphic" in2="effect1_dropShadow_1_257" result="shape"/>
</filter>
<clipPath id="clip0_1_257">
<rect width="196" height="192" fill="white" transform="translate(12 12)"/>
</clipPath>
</defs>
</svg>
